# xmcd
#
# Track frame offsets:
#	150
#	13713
#	31456
#	54286
#	80102
#	98825
#	117743
#	141941
#	164528
#	180172
#	192735
#	205060
#
# Disc length: 3033 seconds
# Revision: 0
# Processed by: cddbd v1.5.2PL0 Copyright (c) Steve Scherf et al.
# Submitted via: dBpowerAMP V12.0
#
DISCID=a80bd70c
DTITLE=Melody Walker and Jacob Groopman - We Made It Home
DYEAR=2013
DGENRE=Americana
TTITLE0=We Made It Home
TTITLE1=Retinue
TTITLE2=Betelgeuse
TTITLE3=Black Grace
TTITLE4=Come on Mule
TTITLE5=Billy The Champ
TTITLE6=O Heartbreaker
TTITLE7=Graceland
TTITLE8=Sweet Sunny South
TTITLE9=Yellow Haired Girl
TTITLE10=Little Blue Caboose
TTITLE11=Mississippi Moon
EXTD=
EXTT0=
EXTT1=
EXTT2=
EXTT3=
EXTT4=
EXTT5=
EXTT6=
EXTT7=
EXTT8=
EXTT9=
EXTT10=
EXTT11=
PLAYORDER=
